<svg width="604" height="192" viewBox="0 0 604 192" fill="none" xmlns="http://www.w3.org/2000/svg">
<path d="M233.596 158V56.1818H277.743C285.499 56.1818 292.012 57.2259 297.282 59.3139C302.585 61.402 306.579 64.3518 309.263 68.1633C311.981 71.9749 313.34 76.4659 313.34 81.6364C313.34 85.3816 312.511 88.7954 310.854 91.8778C309.23 94.9602 306.943 97.5455 303.993 99.6335C301.044 101.688 297.597 103.114 293.653 103.909V104.903C298.028 105.069 302.005 106.179 305.584 108.234C309.164 110.256 312.014 113.057 314.135 116.636C316.257 120.183 317.317 124.359 317.317 129.165C317.317 134.733 315.859 139.688 312.942 144.03C310.059 148.372 305.949 151.786 300.613 154.271C295.277 156.757 288.913 158 281.522 158H233.596ZM261.238 135.926H274.164C278.804 135.926 282.284 135.064 284.604 133.341C286.924 131.584 288.084 128.999 288.084 125.585C288.084 123.199 287.537 121.177 286.444 119.52C285.35 117.863 283.792 116.603 281.77 115.741C279.782 114.88 277.379 114.449 274.562 114.449H261.238V135.926ZM261.238 97.3466H272.573C274.992 97.3466 277.13 96.9654 278.986 96.2031C280.842 95.4408 282.284 94.3471 283.312 92.9219C284.372 91.4635 284.903 89.6903 284.903 87.6023C284.903 84.4536 283.776 82.0507 281.522 80.3935C279.268 78.7031 276.418 77.858 272.971 77.858H261.238V97.3466ZM373.049 81.6364V101.523H322.736V81.6364H373.049ZM332.481 63.3409H359.924V133.44C359.924 134.501 360.106 135.396 360.471 136.125C360.835 136.821 361.399 137.351 362.161 137.716C362.923 138.047 363.901 138.213 365.094 138.213C365.923 138.213 366.884 138.114 367.978 137.915C369.105 137.716 369.933 137.55 370.464 137.418L374.441 156.707C373.215 157.072 371.458 157.519 369.171 158.05C366.917 158.58 364.233 158.928 361.117 159.094C354.82 159.425 349.533 158.779 345.258 157.155C340.982 155.498 337.767 152.896 335.613 149.349C333.458 145.803 332.414 141.362 332.481 136.026V63.3409ZM384.247 158V81.6364H410.895V96.1534H411.691C413.083 90.7841 415.287 86.8565 418.303 84.3707C421.352 81.8849 424.915 80.642 428.992 80.642C430.185 80.642 431.361 80.7415 432.521 80.9403C433.715 81.1061 434.858 81.3546 435.952 81.6861V105.102C434.593 104.638 432.919 104.29 430.931 104.058C428.942 103.826 427.235 103.71 425.81 103.71C423.125 103.71 420.706 104.323 418.551 105.55C416.43 106.743 414.756 108.433 413.53 110.621C412.304 112.775 411.691 115.311 411.691 118.227V158H384.247ZM477.166 159.392C469.013 159.392 461.986 157.834 456.087 154.719C450.22 151.57 445.696 147.062 442.514 141.196C439.366 135.296 437.791 128.237 437.791 120.017C437.791 112.129 439.382 105.235 442.564 99.3352C445.746 93.4356 450.237 88.8452 456.037 85.5639C461.837 82.2827 468.682 80.642 476.57 80.642C482.337 80.642 487.557 81.5369 492.23 83.3267C496.904 85.1165 500.897 87.7183 504.212 91.1321C507.526 94.5128 510.078 98.6226 511.868 103.462C513.658 108.301 514.553 113.753 514.553 119.818V126.182H446.343V111.068H489.297C489.264 108.881 488.7 106.958 487.607 105.301C486.546 103.611 485.104 102.302 483.281 101.374C481.492 100.412 479.453 99.9318 477.166 99.9318C474.946 99.9318 472.907 100.412 471.051 101.374C469.195 102.302 467.704 103.594 466.577 105.251C465.483 106.909 464.903 108.848 464.837 111.068V127.375C464.837 129.828 465.351 132.015 466.378 133.938C467.405 135.86 468.88 137.368 470.803 138.462C472.725 139.555 475.045 140.102 477.763 140.102C479.652 140.102 481.376 139.837 482.933 139.307C484.524 138.777 485.883 138.014 487.01 137.02C488.137 135.992 488.966 134.766 489.496 133.341H514.553C513.691 138.644 511.653 143.251 508.438 147.162C505.223 151.04 500.964 154.056 495.661 156.21C490.391 158.331 484.226 159.392 477.166 159.392ZM562.342 159.392C554.189 159.392 547.162 157.834 541.263 154.719C535.396 151.57 530.872 147.062 527.69 141.196C524.541 135.296 522.967 128.237 522.967 120.017C522.967 112.129 524.558 105.235 527.74 99.3352C530.922 93.4356 535.413 88.8452 541.213 85.5639C547.013 82.2827 553.857 80.642 561.746 80.642C567.513 80.642 572.733 81.5369 577.406 83.3267C582.079 85.1165 586.073 87.7183 589.388 91.1321C592.702 94.5128 595.254 98.6226 597.044 103.462C598.834 108.301 599.729 113.753 599.729 119.818V126.182H531.518V111.068H574.473C574.44 108.881 573.876 106.958 572.782 105.301C571.722 103.611 570.28 102.302 568.457 101.374C566.667 100.412 564.629 99.9318 562.342 99.9318C560.122 99.9318 558.083 100.412 556.227 101.374C554.371 102.302 552.88 103.594 551.753 105.251C550.659 106.909 550.079 108.848 550.013 111.068V127.375C550.013 129.828 550.526 132.015 551.554 133.938C552.581 135.86 554.056 137.368 555.979 138.462C557.901 139.555 560.221 140.102 562.939 140.102C564.828 140.102 566.551 139.837 568.109 139.307C569.7 138.777 571.059 138.014 572.186 137.02C573.313 135.992 574.141 134.766 574.672 133.341H599.729C598.867 138.644 596.828 143.251 593.613 147.162C590.398 151.04 586.14 154.056 580.836 156.21C575.567 158.331 569.402 159.392 562.342 159.392Z" fill="#0088FF"/>
<path d="M6.76953 158V56.1818H50.7184C58.2752 56.1818 64.8874 57.5573 70.555 60.3082C76.2227 63.0592 80.6308 67.0199 83.7795 72.1903C86.9281 77.3608 88.5025 83.5587 88.5025 90.7841C88.5025 98.0758 86.8784 104.224 83.6303 109.229C80.4154 114.233 75.8912 118.012 70.0579 120.564C64.2577 123.116 57.4798 124.392 49.7241 124.392H23.4741V102.915H44.1559C47.404 102.915 50.1715 102.517 52.4585 101.722C54.7785 100.893 56.5517 99.5838 57.7781 97.794C59.0375 96.0043 59.6673 93.6676 59.6673 90.7841C59.6673 87.8674 59.0375 85.4976 57.7781 83.6747C56.5517 81.8187 54.7785 80.4598 52.4585 79.598C50.1715 78.7031 47.404 78.2557 44.1559 78.2557H34.4116V158H6.76953ZM66.4286 111.267L91.8832 158H61.8548L36.9968 111.267H66.4286ZM100.683 158V81.6364H128.126V158H100.683ZM114.404 73.6818C110.692 73.6818 107.511 72.4555 104.859 70.0028C102.208 67.5502 100.882 64.6004 100.882 61.1534C100.882 57.7064 102.208 54.7566 104.859 52.304C107.511 49.8513 110.692 48.625 114.404 48.625C118.15 48.625 121.332 49.8513 123.95 52.304C126.601 54.7566 127.927 57.7064 127.927 61.1534C127.927 64.6004 126.601 67.5502 123.95 70.0028C121.332 72.4555 118.15 73.6818 114.404 73.6818ZM142.109 186.636V81.6364H169.353V94.9602H169.95C170.944 92.375 172.402 90.0052 174.325 87.8508C176.247 85.6633 178.633 83.9233 181.484 82.6307C184.334 81.3049 187.648 80.642 191.427 80.642C196.465 80.642 201.254 81.9844 205.795 84.669C210.369 87.3537 214.081 91.5795 216.931 97.3466C219.815 103.114 221.256 110.604 221.256 119.818C221.256 128.634 219.881 135.943 217.13 141.743C214.412 147.543 210.766 151.868 206.192 154.719C201.652 157.569 196.664 158.994 191.228 158.994C187.648 158.994 184.45 158.414 181.633 157.254C178.849 156.061 176.462 154.454 174.474 152.432C172.518 150.377 171.01 148.057 169.95 145.472H169.552V186.636H142.109ZM168.955 119.818C168.955 123.53 169.436 126.745 170.397 129.463C171.391 132.148 172.783 134.236 174.573 135.727C176.396 137.186 178.567 137.915 181.086 137.915C183.605 137.915 185.743 137.202 187.499 135.777C189.289 134.319 190.648 132.247 191.576 129.562C192.537 126.845 193.018 123.597 193.018 119.818C193.018 116.04 192.537 112.808 191.576 110.124C190.648 107.406 189.289 105.334 187.499 103.909C185.743 102.451 183.605 101.722 181.086 101.722C178.567 101.722 176.396 102.451 174.573 103.909C172.783 105.334 171.391 107.406 170.397 110.124C169.436 112.808 168.955 116.04 168.955 119.818Z" fill="#BB0000"/>
<line x1="515.828" y1="11.1716" x2="558.255" y2="53.598" stroke="black" stroke-width="8"/>
<line x1="520.255" y1="11.8284" x2="477.828" y2="54.2548" stroke="black" stroke-width="8"/>
<line x1="518" y1="16" x2="518" y2="76" stroke="black" stroke-width="8"/>
<circle cx="559" cy="62" r="16" fill="#0088FF"/>
<circle cx="518" cy="62" r="16" fill="black"/>
<circle cx="518" cy="16" r="15" fill="white" stroke="black" stroke-width="2"/>
<circle cx="477" cy="62" r="16" fill="#BB0000"/>
</svg>
